<svg xmlns="http://www.w3.org/2000/svg" width="256" height="256" viewBox="0 0 256 256">
<defs>
<linearGradient id="plate" x2="1" y2="1"><stop stop-color="#fff0c7"/><stop offset=".48" stop-color="#d8be8e"/><stop offset="1" stop-color="#89755a"/></linearGradient>
<linearGradient id="rust" x2="1" y2="1"><stop stop-color="#eaa457"/><stop offset=".5" stop-color="#b55c32"/><stop offset="1" stop-color="#663d2a"/></linearGradient>
<linearGradient id="steel" x2="1" y2="1"><stop stop-color="#607174"/><stop offset=".5" stop-color="#293a40"/><stop offset="1" stop-color="#142126"/></linearGradient>
</defs>
<path d="m83 45 17-22 57 1 22 21-8 52-34 27-45-16Z" fill="url(#steel)" stroke="#172126" stroke-width="7" stroke-linejoin="round"/>
<path d="m103 30 48 1 16 17-6 31-51 4-18-22Z" fill="url(#plate)" stroke="#172126" stroke-width="5"/>
<path d="m105 85 55-4 10 30-16 25-41 4-21-28Z" fill="url(#rust)" stroke="#172126" stroke-width="6"/>
<path d="m87 69-22 6-12 26 24 17 24-18Zm89-2 22 12 10 24-23 14-18-24Z" fill="url(#plate)" stroke="#172126" stroke-width="6" stroke-linejoin="round"/>
<path d="m108 48 43-1-1 9-38 4Z" fill="#5e7475"/><path d="m114 49 30-1-1 5-28 4Z" fill="#8ce8de"/>
<g fill="#172126" stroke="#c8aa78" stroke-width="2"><circle cx="102" cy="39" r="3"/><circle cx="155" cy="43" r="3"/><circle cx="112" cy="106" r="4"/><circle cx="153" cy="103" r="4"/></g>
<g fill="none" stroke="#82633f" stroke-width="2"><path d="m102 66 12-5m14 62 16-3m-73-24 10-5m102 10 11 6"/><path d="m113 34 22 1m-71 53 7-8" stroke="#fff0c7"/></g>
<path d="m25 191 35-29 29 20 34-32 31 27 31-18 46 37-42 14-28-10-32 19-34-17-28 10Z" fill="url(#rust)" stroke="#172126" stroke-width="6" stroke-linejoin="round"/>
<path d="m35 188 28-18 24 19 37-30 28 25 30-16 36 27" fill="none" stroke="#ebcd93" stroke-width="4" stroke-linecap="round"/>
<path d="m108 192 20-20 16 15-14 12-4-9-8 10Z" fill="#8ee4dc"/>
<path d="M38 222q89 30 180-1M56 235q69 19 145-1" fill="none" stroke="#d7af72" stroke-width="3" stroke-linecap="round"/>
<g fill="none" stroke="#e3bb7c" stroke-width="4" stroke-linecap="round"><path d="m42 137-12-8m33 13-8-19m154 17 14-9m-39 12 8-20"/></g>
<g fill="url(#plate)" stroke="#172126" stroke-width="3"><path d="m33 158 9-7 8 9-12 6Z"/><path d="m208 160 7-11 11 8-9 10Z"/></g>
</svg>
